<?xml version="1.0" encoding="UTF-8" standalone="no"?>
<!-- Created with Inkscape (http://www.inkscape.org/) -->

<svg
   xmlns:dc="http://purl.org/dc/elements/1.1/"
   xmlns:cc="http://creativecommons.org/ns#"
   xmlns:rdf="http://www.w3.org/1999/02/22-rdf-syntax-ns#"
   xmlns:svg="http://www.w3.org/2000/svg"
   xmlns="http://www.w3.org/2000/svg"
   xmlns:sodipodi="http://sodipodi.sourceforge.net/DTD/sodipodi-0.dtd"
   xmlns:inkscape="http://www.inkscape.org/namespaces/inkscape"
   width="744.09448819"
   height="1052.3622047"
   id="svg2"
   version="1.1"
   inkscape:version="0.48.4 r9939"
   sodipodi:docname="rapture.svg">
  <defs
     id="defs4" />
  <sodipodi:namedview
     id="base"
     pagecolor="#ffffff"
     bordercolor="#666666"
     borderopacity="1.0"
     inkscape:pageopacity="0.0"
     inkscape:pageshadow="2"
     inkscape:zoom="5.6"
     inkscape:cx="-251.72837"
     inkscape:cy="803.27566"
     inkscape:document-units="px"
     inkscape:current-layer="layer1"
     showgrid="false"
     inkscape:snap-global="true"
     inkscape:window-width="3198"
     inkscape:window-height="1776"
     inkscape:window-x="0"
     inkscape:window-y="2160"
     inkscape:window-maximized="0">
    <inkscape:grid
       type="xygrid"
       id="grid3917"
       empspacing="1"
       visible="true"
       enabled="true"
       snapvisiblegridlinesonly="true"
       empcolor="#8a8aff"
       empopacity="0.1254902"
       spacingx="0.125cm"
       units="cm"
       spacingy="0.125cm"
       dotted="false" />
  </sodipodi:namedview>
  <metadata
     id="metadata7">
    <rdf:RDF>
      <cc:Work
         rdf:about="">
        <dc:format>image/svg+xml</dc:format>
        <dc:type
           rdf:resource="http://purl.org/dc/dcmitype/StillImage" />
        <dc:title />
      </cc:Work>
    </rdf:RDF>
  </metadata>
  <g
     inkscape:label="Layer 1"
     inkscape:groupmode="layer"
     id="layer1">
    <path
       style="fill:#5b5b5b;stroke:none;stroke-width:1px;stroke-linecap:butt;stroke-linejoin:miter;stroke-opacity:1;fill-opacity:1"
       d="m -372.04724,325.98423 c 0,0 0,8.85827 8.85826,35.43307 17.71654,4.42913 35.43307,4.42913 53.14961,0 8.85827,-17.71653 8.85827,-35.43307 8.85827,-35.43307 -26.57481,-4.42913 -44.29134,-4.42913 -70.86614,0 z"
       id="path4015"
       inkscape:connector-curvature="0"
       sodipodi:nodetypes="ccccc" />
    <path
       style="fill:#00b28a;fill-opacity:1;stroke:none"
       d="m -355.7998,284.03493 c -15.74531,-3.77435 -29.69715,-11.64353 -40.91031,-23.07445 -6.68192,-6.81168 -11.55191,-13.71978 -15.71605,-22.29329 -6.114,-12.58807 -8.89832,-25.94963 -8.35147,-40.0776 0.58134,-15.01892 5.18924,-29.6174 13.33171,-42.23679 11.05382,-17.13144 28.02369,-29.72989 47.71755,-35.42557 2.46304,-0.71234 5.76544,-1.46531 5.88634,-1.34214 0.0527,0.0537 -0.46669,0.58887 -1.15419,1.1893 -2.37219,2.07174 -7.2805,7.00792 -9.62389,9.67852 -15.78805,17.99253 -24.79209,39.40578 -26.73107,63.57143 -0.27671,3.44865 -0.27671,12.4442 0,15.89285 1.76483,21.99526 9.44414,41.83935 22.76975,58.83929 3.57615,4.56223 9.34682,10.67888 13.53717,14.34882 0.86989,0.76185 1.42246,1.35902 1.25,1.35087 -0.17001,-0.008 -1.0725,-0.19758 -2.00554,-0.42124 l 0,0 z"
       id="path4041"
       inkscape:connector-curvature="0" />
    <path
       style="fill:#f0e300;fill-opacity:1;stroke:none"
       d="m -338.26093,277.99755 c -15.16898,-39.0909 -18.24673,-82.43008 -8.77231,-123.52679 2.47788,-10.74819 5.13256,-19.17395 9.94428,-31.5625 0.16213,-0.41741 0.35573,-0.75892 0.43024,-0.75892 0.22269,0 0.56303,0.78615 2.16457,5 6.85099,18.02581 11.20613,37.05429 12.8742,56.25 0.62041,7.13956 0.72248,9.76318 0.72248,18.57143 0,8.80824 -0.10207,11.43186 -0.72248,18.57142 -1.66577,19.16927 -6.01786,38.1815 -12.87618,56.25 -1.59385,4.19905 -1.93981,5 -2.15972,5 -0.0729,0 -0.79522,-1.70759 -1.60508,-3.79464 l 0,0 z"
       id="path4045"
       inkscape:connector-curvature="0" />
    <path
       style="fill:#e2f000;fill-opacity:1;stroke:none"
       d="m -333.02431,283.4645 c 8.09196,-19.63543 13.31237,-41.12784 15.15343,-62.38659 0.6526,-7.53554 0.72905,-9.53901 0.72905,-19.10714 0,-9.56814 -0.0764,-11.57161 -0.72905,-19.10715 -1.84976,-21.35921 -7.02439,-42.62022 -15.22808,-62.56765 l -1.09271,-2.65694 1.02629,0.10519 c 0.56447,0.0579 1.95041,0.15926 3.07987,0.22535 1.12946,0.0661 2.24667,0.19252 2.48267,0.28094 1.15234,0.43171 7.55172,5.90406 11.45043,9.79168 16.53178,16.48476 26.90589,37.4554 29.90266,60.44643 1.08348,8.31234 1.08348,18.65195 0,26.96429 -2.99415,22.97096 -13.39549,43.99307 -29.90773,60.44643 -3.92368,3.90968 -10.29139,9.35786 -11.44536,9.79257 -0.236,0.0889 -1.39338,0.21512 -2.57196,0.28047 -1.17857,0.0654 -2.56454,0.16525 -3.07994,0.22199 l -0.93708,0.10316 1.16751,-2.83303 0,0 z"
       id="path4047"
       inkscape:connector-curvature="0" />
    <path
       style="fill:#c6f000;fill-opacity:1;stroke:none"
       d="m -319.37122,284.32725 c 0,-0.0922 0.98437,-1.05335 2.1875,-2.13594 19.15927,-17.23986 31.71512,-41.41205 34.75895,-66.91697 0.59541,-4.98909 0.76542,-7.94408 0.76542,-13.30357 0,-5.36795 -0.17089,-8.33132 -0.7672,-13.30358 -2.5488,-21.25298 -11.51904,-41.36698 -25.76274,-57.76785 -1.98133,-2.2814 -7.40778,-7.76935 -9.75336,-9.86389 -0.83482,-0.74547 -1.47465,-1.39882 -1.42184,-1.45189 0.0528,-0.0531 0.89655,0.0897 1.875,0.31721 19.67971,4.57652 37.2168,16.24687 49.1309,32.69499 7.97762,11.01358 13.13904,23.72198 15.13882,37.27469 1.07644,7.29511 1.07644,16.90552 0,24.20063 -3.92452,26.59681 -20.08841,49.57185 -43.80245,62.25993 -6.29514,3.36819 -13.79662,6.19831 -20.38472,7.69065 -0.73661,0.16685 -1.47991,0.34158 -1.65178,0.38827 -0.17188,0.0467 -0.3125,0.009 -0.3125,-0.0827 z"
       id="path4049"
       inkscape:connector-curvature="0" />
  </g>
</svg>
