<?xml version="1.0" encoding="UTF-8" standalone="no"?>
<!-- Created with Inkscape (http://www.inkscape.org/) -->

<svg
   xmlns:dc="http://purl.org/dc/elements/1.1/"
   xmlns:cc="http://creativecommons.org/ns#"
   xmlns:rdf="http://www.w3.org/1999/02/22-rdf-syntax-ns#"
   xmlns:svg="http://www.w3.org/2000/svg"
   xmlns="http://www.w3.org/2000/svg"
   xmlns:sodipodi="http://sodipodi.sourceforge.net/DTD/sodipodi-0.dtd"
   xmlns:inkscape="http://www.inkscape.org/namespaces/inkscape"
   width="744.09448819"
   height="1052.3622047"
   id="svg2"
   version="1.1"
   inkscape:version="0.48.4 r9939"
   sodipodi:docname="logo.svg">
  <defs
     id="defs4" />
  <sodipodi:namedview
     id="base"
     pagecolor="#ffffff"
     bordercolor="#666666"
     borderopacity="1.0"
     inkscape:pageopacity="0.0"
     inkscape:pageshadow="2"
     inkscape:zoom="0.98994949"
     inkscape:cx="2175.5134"
     inkscape:cy="864.30619"
     inkscape:document-units="px"
     inkscape:current-layer="layer1"
     showgrid="false"
     inkscape:snap-global="true"
     inkscape:window-width="1598"
     inkscape:window-height="1784"
     inkscape:window-x="1600"
     inkscape:window-y="0"
     inkscape:window-maximized="0">
    <inkscape:grid
       type="xygrid"
       id="grid3917"
       empspacing="1"
       visible="true"
       enabled="true"
       snapvisiblegridlinesonly="true"
       empcolor="#8a8aff"
       empopacity="0.1254902"
       spacingx="0.125cm"
       units="cm"
       spacingy="0.125cm"
       dotted="false" />
  </sodipodi:namedview>
  <metadata
     id="metadata7">
    <rdf:RDF>
      <cc:Work
         rdf:about="">
        <dc:format>image/svg+xml</dc:format>
        <dc:type
           rdf:resource="http://purl.org/dc/dcmitype/StillImage" />
        <dc:title></dc:title>
      </cc:Work>
    </rdf:RDF>
  </metadata>
  <g
     inkscape:label="Layer 1"
     inkscape:groupmode="layer"
     id="layer1">
    <g
       id="g5520">
      <path
         sodipodi:nodetypes="ccccc"
         inkscape:connector-curvature="0"
         id="path4015"
         d="m 1994.9894,88.62598 c 0,0 0,8.8583 8.8583,35.4331 17.7165,4.4291 35.4331,4.4291 53.1496,0 8.8583,-17.7165 8.8583,-35.4331 8.8583,-35.4331 -26.5748,-4.4291 -44.2914,-4.4291 -70.8662,0 z"
         style="fill:#ffffff;fill-opacity:0.82352941;stroke:none" />
      <path
         id="path4143"
         d="m 1989.2867,-88.32692 c -1.5422,1.1118 -3.1007,2.226 -4.5625,3.4375 -2.0792,1.7231 -4.0642,3.5561 -5.9688,5.4687 -1.9045,1.9127 -3.7216,3.912 -5.4375,6 -1.7158,2.088 -3.3306,4.2509 -4.8437,6.5 -1.5131,2.2492 -2.9226,4.5726 -4.2188,6.9688 -1.2961,2.3961 -2.4973,4.8773 -3.5625,7.4062 -1.0651,2.529 -1.9924,5.1024 -2.8125,7.75 -0.82,2.6476 -1.5329,5.3729 -2.0937,8.125 -0.5608,2.7521 -0.9626,5.5326 -1.25,8.375 -0.2875,2.8425 -0.4375,5.7377 -0.4375,8.6563 0,2.9186 0.15,5.8138 0.4375,8.6562 0.2874,2.8425003 0.6892,5.6229003 1.25,8.3750003 0.5608,2.75209996 1.2737,5.4774 2.0937,8.125 0.4661,1.5047 1.0476,2.9389 1.5938,4.4063 3.0852,4.8580997 6.5611,9.3216997 10.8437,13.6874997 11.2132,11.4309 25.161,19.2881 40.9063,23.0625 0.933,0.2236 1.8612,0.4295 2.0312,0.4375 0.1725,0.01 -0.3801,-0.6132 -1.25,-1.375 -4.1903,-3.67 -9.9863,-9.7816 -13.5625,-14.3438 -13.3256,-16.9999 -20.9851,-36.8484997 -22.75,-58.8437 -0.2767,-3.4487 -0.2767,-12.4264 0,-15.875 1.3107,-16.3351 5.9135,-31.3867 13.5938,-45 z"
         style="fill:#ffffff;fill-opacity:0.82352941;stroke:none"
         inkscape:connector-curvature="0" />
      <path
         id="path4041"
         d="m 2013.1929,-117.76442 c -0.1209,-0.1232 -3.4119,0.6314 -5.875,1.3437 -19.6938,5.6957 -36.6649,18.2748 -47.7187,35.4063 -8.1425,12.6194 -12.7624,27.231 -13.3438,42.25 -0.5468,14.1279 2.2298,27.4744 8.3438,40.0625003 1.4952,3.0785 3.1465,5.9033 4.875,8.625 -0.5462,-1.4674 -1.1277,-2.9016 -1.5938,-4.4063 -0.82,-2.6476 -1.5329,-5.37290004 -2.0937,-8.125 -0.5608,-2.7521 -0.9626,-5.5325 -1.25,-8.3750003 -0.2875,-2.8424 -0.4375,-5.7376 -0.4375,-8.6562 0,-2.9186 0.15,-5.8138 0.4375,-8.6563 0.2874,-2.8424 0.6892,-5.6229 1.25,-8.375 0.5608,-2.7521 1.2737,-5.4774 2.0937,-8.125 0.8201,-2.6476 1.7474,-5.221 2.8125,-7.75 1.0652,-2.5289 2.2664,-5.0101 3.5625,-7.4062 1.2962,-2.3962 2.7057,-4.7196 4.2188,-6.9688 1.5131,-2.2491 3.1279,-4.412 4.8437,-6.5 1.7159,-2.088 3.533,-4.0873 5.4375,-6 1.9046,-1.9126 3.8896,-3.7456 5.9688,-5.4687 1.4618,-1.2115 3.0203,-2.3257 4.5625,-3.4375 3.6817,-6.5259 8.0091,-12.7635 13.125,-18.5938 2.3434,-2.6706 7.2528,-7.5845 9.625,-9.6562 0.6875,-0.6005 1.2089,-1.1338 1.1562,-1.1875 z"
         style="fill:#ffffff;fill-opacity:0.94117647;stroke:none"
         inkscape:connector-curvature="0" />
      <path
         id="path4140"
         d="m 2034.6617,-104.01442 c -1.6628,0.071 -3.3323,0.083 -4.9688,0.25 -1.2668,0.1292 -2.5004,0.3775 -3.75,0.5625 -2.3433,6.8417 -4.309,13.2486 -5.9375,20.3125 -9.4744,41.0967 -6.3877,84.4403003 8.7813,123.5312 0.8098,2.0871 1.5208,3.7813 1.5937,3.7813 0.2199,0 0.5624,-0.801 2.1563,-5 6.8583,-18.0685 11.2092,-37.0807997 12.875,-56.25 0.6204,-7.1396 0.7187,-9.7543 0.7187,-18.5625 0,-8.8083 -0.098,-11.423 -0.7187,-18.5625 -1.4795,-17.0257 -5.1762,-33.8829 -10.75,-50.0625 z"
         style="fill:#ffffff;fill-opacity:0.82352941;stroke:none"
         inkscape:connector-curvature="0" />
      <path
         id="path4045"
         d="m 2030.3804,-115.20192 c -0.074,0 -0.2753,0.3326 -0.4375,0.75 -1.6494,4.2466 -2.7777,7.6814 -4,11.25 1.2496,-0.185 2.4832,-0.4333 3.75,-0.5625 1.6365,-0.1669 3.306,-0.1786 4.9688,-0.25 -0.7104,-2.0622 -1.3505,-4.1498 -2.125,-6.1875 -1.6016,-4.2139 -1.9336,-5 -2.1563,-5 z"
         style="fill:#ffffff;fill-opacity:0.94117647;stroke:none"
         inkscape:connector-curvature="0" />
      <path
         id="path4137"
         d="m 2057.5992,-101.85822 c -0.8075,-0.1907 -1.59,-0.4578 -2.4063,-0.625 -2.7325,-0.5597 -5.4909,-0.9944 -8.3125,-1.2812 -2.6982,-0.2744 -5.4515,-0.394 -8.2187,-0.4063 5.4372,16.1068 9.0431,32.8651 10.5,49.6875 0.6526,7.5356 0.7187,9.5256 0.7187,19.0938 0,9.5681 -0.066,11.5582 -0.7187,19.0937 -1.8411,21.2588003 -7.0643,42.7708 -15.1563,62.4063 l -1.1562,2.8437 0.9375,-0.125 c 0.5154,-0.057 1.8839,-0.1533 3.0625,-0.2187 1.1786,-0.065 2.3577,-0.1924 2.5937,-0.2813 1.154,-0.4347 7.5139,-5.8716 11.4375,-9.7812 16.5123,-16.4534 26.9121,-37.4977997 29.9063,-60.4688 1.0835,-8.3123 1.0835,-18.6251 0,-26.9375 -2.564,-19.6709 -10.5864,-37.8312 -23.1875,-53 z"
         style="fill:#ffffff;fill-opacity:0.82352941;stroke:none"
         inkscape:connector-curvature="0" />
      <path
         id="path4047"
         d="m 2032.8492,-119.73322 1.0937,2.6563 c 1.7425,4.2369 3.2524,8.5624 4.7188,12.9062 2.7672,0.012 5.5205,0.1319 8.2187,0.4063 2.8216,0.2868 5.58,0.7215 8.3125,1.2812 0.8163,0.1672 1.5988,0.4343 2.4063,0.625 -2.1268,-2.5602 -4.3315,-5.0882 -6.7188,-7.4687 -3.8987,-3.8877 -10.2851,-9.3496 -11.4375,-9.7813 -0.236,-0.088 -1.3705,-0.2151 -2.5,-0.2812 -1.1294,-0.066 -2.498,-0.1609 -3.0625,-0.2188 l -1.0312,-0.125 z"
         style="fill:#ffffff;fill-opacity:0.94117647;stroke:none"
         inkscape:connector-curvature="0" />
      <path
         id="path4134"
         d="m 2109.0679,-65.29572 c -0.3807,-0.5939 -0.6987,-1.2289 -1.0937,-1.8125 -1.5151,-2.2383 -3.1274,-4.4224 -4.8438,-6.5 -1.7163,-2.0775 -3.5339,-4.066 -5.4375,-5.9687 -1.9035,-1.9028 -3.892,-3.6924 -5.9687,-5.4063 -2.0768,-1.7139 -4.2641,-3.3326 -6.5,-4.8437 -2.2359,-1.5111 -4.5252,-2.9245 -6.9063,-4.2188 -2.3811,-1.2943 -4.8315,-2.4678 -7.3437,-3.5312 -2.2978,-0.9727 -4.6662,-1.8255 -7.0625,-2.5938 11.3091,15.1355 18.4556,32.858 20.6875,51.4688 0.5963,4.9722 0.7812,7.9445 0.7812,13.3125 0,5.3595 -0.1858,8.3234 -0.7812,13.3125 -3.0438,25.5049003 -15.5907,49.6664 -34.75,66.9062 -1.2031,1.0826 -2.1875,2.0328 -2.1875,2.125 0,0.092 0.1406,0.1405 0.3125,0.094 0.1719,-0.047 0.9196,-0.2081 1.6562,-0.375 6.5881,-1.4923 14.0799,-4.3193 20.375,-7.6875 23.7141,-12.6881 39.888,-35.6843997 43.8125,-62.2812 1.0765,-7.2951 1.0765,-16.8924 0,-24.1875 -0.9072,-6.1484 -2.5736,-12.0912 -4.75,-17.8125 z"
         style="fill:#ffffff;fill-opacity:0.82352941;stroke:none"
         inkscape:connector-curvature="0" />
      <path
         id="path4049"
         d="m 2047.6617,-117.76442 c -0.053,0.053 0.6027,0.692 1.4375,1.4375 2.3456,2.0945 7.7687,7.5936 9.75,9.875 1.7708,2.039 3.4569,4.1324 5.0625,6.2812 2.3963,0.7683 4.7647,1.6211 7.0625,2.5938 2.5122,1.0634 4.9626,2.2369 7.3437,3.5312 2.3811,1.2943 4.6704,2.7077 6.9063,4.2188 2.2359,1.5111 4.4232,3.1298 6.5,4.8437 2.0767,1.7139 4.0652,3.5035 5.9687,5.4063 1.9036,1.9027 3.7212,3.8912 5.4375,5.9687 1.7164,2.0776 3.3287,4.2617 4.8438,6.5 0.395,0.5836 0.713,1.2186 1.0937,1.8125 -2.6209,-6.8902 -6.0165,-13.4516 -10.375,-19.4687 -11.9141,-16.4482 -29.4765,-28.111 -49.1562,-32.6875 -0.9785,-0.2275 -1.8222,-0.3656 -1.875,-0.3125 z"
         style="fill:#ffffff;fill-opacity:0.94117647;stroke:none"
         inkscape:connector-curvature="0" />
    </g>
  </g>
</svg>
